<mxfile host="app.diagrams.net" modified="2024-07-29T16:25:22.836Z" agent="Mozilla/5.0 (Windows NT 10.0; Win64; x64) AppleWebKit/537.36 (KHTML, like Gecko) Chrome/126.0.0.0 Safari/537.36 Edg/126.0.0.0" version="24.5.4" etag="9ryUSMH8M9uHPUvS3_O2" type="github">
  <diagram name="第 1 页" id="QEoQt7C-64s81cL3djA0">
    <mxGraphModel>
      <root>
        <mxCell id="0" />
        <mxCell id="1" parent="0" />
      </root>
    </mxGraphModel>
  </diagram>
</mxfile>
